<svg xmlns="http://www.w3.org/2000/svg" viewBox="0 0 1024 1024" role="img" aria-label="Transpose Piano icon">
  <defs>
    <linearGradient id="bg" x1="160" y1="80" x2="864" y2="944" gradientUnits="userSpaceOnUse">
      <stop stop-color="#1f1d1a"/>
      <stop offset=".54" stop-color="#5f4a3d"/>
      <stop offset="1" stop-color="#c5ad93"/>
    </linearGradient>
    <filter id="shadow" x="-20%" y="-20%" width="140%" height="150%">
      <feDropShadow dx="0" dy="28" stdDeviation="24" flood-color="#000" flood-opacity=".28"/>
    </filter>
  </defs>
  <rect width="1024" height="1024" rx="224" fill="url(#bg)"/>
  <path d="M216 267c133-56 249-53 346 7 58 36 109 87 167 133 39 31 82 58 132 70" fill="none" stroke="#f8f2e8" stroke-width="54" stroke-linecap="round" opacity=".92"/>
  <path d="M216 382c133-56 249-53 346 7 58 36 109 87 167 133 39 31 82 58 132 70" fill="none" stroke="#f8f2e8" stroke-width="54" stroke-linecap="round" opacity=".58"/>
  <g filter="url(#shadow)">
    <rect x="198" y="604" width="628" height="176" rx="24" fill="#fffaf0"/>
    <path d="M287 604v176M376 604v176M465 604v176M554 604v176M643 604v176M732 604v176" stroke="#d3c3ae" stroke-width="8"/>
    <rect x="250" y="604" width="52" height="116" rx="14" fill="#141312"/>
    <rect x="338" y="604" width="52" height="116" rx="14" fill="#141312"/>
    <rect x="515" y="604" width="52" height="116" rx="14" fill="#141312"/>
    <rect x="604" y="604" width="52" height="116" rx="14" fill="#141312"/>
    <rect x="693" y="604" width="52" height="116" rx="14" fill="#141312"/>
  </g>
  <text x="512" y="475" text-anchor="middle" font-family="Georgia, serif" font-size="188" font-weight="700" fill="#fff7ea">T</text>
</svg>
